<?xml version="1.0" standalone="no"?>
<!DOCTYPE svg PUBLIC "-//W3C//DTD SVG 20010904//EN"
 "http://www.w3.org/TR/2001/REC-SVG-20010904/DTD/svg10.dtd">
<svg version="1.0" xmlns="http://www.w3.org/2000/svg"
 width="1536.000000pt" height="1024.000000pt" viewBox="0 0 1536.000000 1024.000000"
 preserveAspectRatio="xMidYMid meet">

<g transform="translate(0.000000,1024.000000) scale(0.100000,-0.100000)"
fill="#000000" stroke="none">
<path d="M5703 6723 c-6 -15 -104 -248 -219 -517 -216 -508 -234 -540 -295
-553 -64 -12 -22 -23 91 -23 73 0 120 4 120 10 0 6 -8 10 -18 10 -33 0 -55 35
-48 75 7 36 81 227 110 284 l17 31 223 0 223 0 62 -147 c35 -82 65 -160 68
-176 7 -34 -20 -67 -54 -67 -12 0 -23 -4 -23 -10 0 -6 62 -10 165 -10 152 0
206 9 136 23 -69 14 -46 -33 -441 887 -48 112 -92 206 -98 208 -5 1 -14 -10
-19 -25z m19 -251 c20 -48 67 -156 103 -241 36 -85 65 -155 65 -157 0 -2 -92
-4 -205 -4 -126 0 -205 4 -205 10 0 10 63 166 126 310 20 47 44 104 53 128 9
23 18 42 21 42 3 0 22 -40 42 -88z"/>
<path d="M4130 6721 c0 -6 13 -11 29 -11 20 0 36 -9 50 -26 21 -26 21 -36 21
-506 l0 -479 -25 -24 c-13 -14 -36 -25 -50 -25 -14 0 -25 -5 -25 -11 0 -7 87
-9 293 -6 313 4 341 8 432 61 106 62 156 231 104 346 -37 83 -97 128 -212 160
l-59 16 67 34 c102 52 145 117 145 220 0 106 -59 189 -166 231 -56 22 -74 23
-331 27 -192 3 -273 0 -273 -7z m495 -42 c99 -28 167 -151 146 -265 -12 -62
-26 -89 -68 -128 -45 -42 -104 -56 -235 -56 l-118 0 0 230 0 230 118 0 c64 0
135 -5 157 -11z m41 -504 c27 -8 68 -28 91 -45 112 -83 123 -286 19 -385 -60
-58 -121 -75 -265 -75 -174 0 -161 -22 -161 276 l0 244 133 0 c88 0 150 -5
183 -15z"/>
<path d="M6510 6720 c0 -5 11 -10 25 -10 31 0 62 -33 68 -73 10 -67 8 -887 -2
-925 -11 -38 -40 -62 -76 -62 -8 0 -15 -4 -15 -10 0 -6 140 -10 400 -10 l400
0 0 54 c0 29 3 74 6 100 9 60 -7 59 -28 -2 -21 -59 -54 -91 -105 -103 -21 -5
-131 -9 -245 -9 l-207 0 -6 33 c-3 17 -5 240 -3 494 l3 461 24 26 c14 14 35
26 48 26 13 0 23 5 23 10 0 6 -58 10 -155 10 -97 0 -155 -4 -155 -10z"/>
<path d="M7565 6720 c3 -5 19 -10 34 -10 16 0 36 -9 47 -21 18 -20 19 -43 19
-506 l0 -485 -28 -24 c-15 -13 -39 -24 -53 -24 -13 0 -24 -4 -24 -10 0 -7 143
-10 410 -10 l410 0 0 100 c0 55 -4 100 -8 100 -4 0 -13 -19 -19 -43 -15 -53
-54 -94 -104 -107 -22 -6 -126 -9 -246 -8 l-208 3 -3 493 -2 493 24 24 c14 14
37 25 51 25 14 0 25 5 25 10 0 6 -62 10 -166 10 -107 0 -163 -3 -159 -10z"/>
<path d="M8630 6720 c0 -5 11 -10 25 -10 33 0 62 -31 70 -72 3 -18 5 -237 3
-486 l-3 -454 -28 -24 c-15 -13 -37 -24 -48 -24 -10 0 -19 -5 -19 -10 0 -7
134 -9 398 -8 l397 3 2 100 c2 96 1 99 -13 65 -25 -62 -38 -83 -67 -104 -27
-20 -40 -21 -260 -21 l-232 0 -3 247 -2 246 27 5 c16 3 93 5 171 4 l144 -2 24
-28 c13 -15 24 -39 24 -53 0 -13 5 -24 10 -24 6 0 10 49 10 126 0 117 -10 153
-23 85 -4 -17 -16 -40 -27 -51 -19 -19 -32 -20 -190 -20 l-170 0 0 240 0 240
198 0 c108 0 214 -5 235 -11 42 -11 62 -37 72 -91 13 -67 25 -40 25 52 l0 90
-375 0 c-243 0 -375 -4 -375 -10z"/>
<path d="M9630 6720 c0 -5 13 -10 28 -10 33 0 70 -36 99 -95 11 -22 63 -150
116 -285 242 -615 283 -715 291 -715 8 0 76 165 220 538 38 98 73 174 77 170
4 -4 36 -82 72 -173 143 -363 195 -496 201 -517 17 -53 11 -66 262 601 84 225
160 419 168 431 8 12 31 30 50 39 20 9 36 19 36 21 0 3 -57 5 -126 5 -81 0
-123 -4 -119 -10 3 -5 16 -10 29 -10 26 0 66 -38 66 -63 0 -18 -92 -275 -195
-547 -37 -96 -76 -199 -87 -229 -17 -44 -22 -51 -30 -37 -12 21 -291 728 -307
778 -16 50 -6 77 35 94 19 8 34 16 34 19 0 3 -74 5 -165 5 -103 0 -165 -4
-165 -10 0 -5 12 -10 26 -10 46 0 86 -54 139 -187 l48 -122 -23 -68 c-21 -64
-148 -389 -185 -478 -13 -30 -19 -36 -26 -24 -12 23 -283 715 -303 777 -17 49
-17 55 -2 77 10 16 26 25 41 25 14 0 25 5 25 10 0 6 -62 10 -165 10 -103 0
-165 -4 -165 -10z"/>
<path d="M7438 5201 c-21 -4 -47 -16 -58 -26 -17 -15 -24 -16 -46 -7 -63 29
-146 -7 -152 -65 -7 -73 -109 -80 -1257 -89 -489 -3 -964 -10 -1055 -14 -144
-6 -122 -7 180 -9 1467 -6 2007 -13 2062 -27 81 -19 130 -42 126 -56 -7 -19
-33 -16 -32 4 1 10 -4 14 -13 11 -18 -7 -13 -33 10 -47 23 -15 51 3 55 36 2
20 -4 28 -30 41 -32 15 -149 44 -198 49 -17 2 -4 9 40 20 133 36 155 43 162
53 13 18 9 22 -18 17 -20 -4 -25 -1 -22 9 7 22 68 59 97 59 27 -1 61 -21 61
-36 0 -12 66 -54 86 -54 16 0 16 21 -1 22 -6 0 -23 9 -38 20 -27 19 -27 21
-11 39 22 24 89 43 128 35 17 -4 48 -18 70 -33 l40 -26 -35 -28 c-42 -34 -34
-48 12 -20 43 26 49 26 49 0 0 -18 3 -19 15 -9 13 11 13 14 0 27 -17 17 -19
32 -6 52 8 12 12 13 25 1 9 -7 14 -20 12 -29 -4 -11 10 -25 44 -46 27 -16 50
-33 50 -36 0 -3 -20 -20 -44 -38 -24 -19 -47 -42 -49 -52 -7 -26 -35 -24 -48
5 -6 13 -26 31 -45 40 -48 22 -54 20 -20 -8 33 -28 29 -39 -24 -66 -73 -37
-167 -31 -194 13 -13 20 8 40 34 34 9 -2 23 7 33 20 23 29 5 31 -41 3 -18 -11
-39 -20 -47 -20 -8 0 -15 -7 -15 -14 0 -13 -4 -13 -35 0 -19 8 -35 12 -35 10
0 -2 31 -22 68 -45 58 -35 77 -41 123 -41 72 0 116 14 151 47 27 26 28 26 28
5 0 -12 9 -31 21 -43 20 -20 22 -20 40 -3 10 9 19 25 19 35 0 17 4 16 36 -6
43 -29 94 -40 171 -37 22 1 50 17 88 48 56 45 117 74 159 74 11 0 -6 12 -39
25 -66 27 -103 51 -119 79 -9 14 -6 21 14 37 29 24 74 19 105 -11 19 -20 19
-20 -3 -20 -28 0 -29 -26 -1 -40 24 -14 25 -13 34 22 5 21 1 33 -18 52 -34 34
-70 42 -117 23 -35 -14 -39 -13 -57 4 -40 41 -170 40 -225 -1 -21 -15 -28 -17
-28 -7 0 16 -31 47 -47 47 -6 0 -16 -13 -23 -29 l-12 -29 -35 24 c-20 13 -45
24 -57 24 -12 0 -30 2 -41 4 -11 2 -37 1 -57 -3z m495 -43 c15 -11 34 -32 42
-48 19 -37 71 -80 106 -87 28 -5 27 -6 -19 -30 -26 -14 -58 -25 -71 -24 -19 1
-21 -2 -12 -12 8 -11 6 -18 -8 -31 -45 -41 -146 -39 -216 4 l-37 23 29 24 c65
55 67 55 111 38 28 -11 42 -24 44 -38 3 -22 32 -26 52 -6 9 8 -109 69 -136 69
-7 0 -33 19 -57 42 l-44 42 29 23 c56 45 131 50 187 11z"/>
<path d="M7893 5085 c-25 -22 -26 -24 -8 -25 19 0 85 34 85 45 0 15 -53 2 -77
-20z"/>
<path d="M7323 5063 c-12 -8 -48 -25 -79 -38 l-57 -23 39 -11 c55 -15 73 -14
50 2 -17 13 -16 14 12 26 30 13 69 48 61 55 -2 2 -14 -3 -26 -11z"/>
<path d="M8160 5055 c0 -11 49 -30 105 -40 l60 -12 -50 -7 c-81 -12 -152 -38
-190 -69 -41 -34 -44 -44 -11 -53 37 -9 66 4 66 29 -1 20 -2 20 -11 5 -5 -10
-22 -18 -36 -18 -25 0 -26 0 -8 20 30 33 148 64 250 65 50 1 572 6 1160 11
621 5 1005 11 915 15 -85 4 -551 9 -1035 13 -949 7 -1049 10 -1138 32 -62 15
-77 17 -77 9z"/>
<path d="M5338 4462 c-26 -59 -57 -131 -69 -160 -13 -31 -31 -57 -43 -62 -16
-7 -8 -9 29 -9 28 1 44 3 38 6 -17 6 -16 36 1 78 15 35 15 35 81 35 66 0 66 0
81 -35 17 -42 18 -72 2 -78 -7 -3 14 -6 47 -6 55 -1 58 0 39 13 -12 9 -47 79
-85 170 -35 86 -66 156 -69 156 -3 0 -26 -49 -52 -108z m88 -89 c-2 -2 -26 -3
-54 -1 l-50 3 26 64 26 63 28 -62 c16 -35 27 -65 24 -67z"/>
<path d="M5743 4553 c14 -16 17 -39 17 -132 0 -162 20 -193 129 -194 109 -1
131 34 131 202 0 94 3 111 18 120 13 8 7 10 -28 10 -25 -1 -37 -3 -28 -6 25
-6 30 -38 26 -147 -4 -110 -21 -145 -80 -160 -29 -7 -43 -5 -69 10 -45 26 -58
67 -58 186 -1 82 2 99 17 107 14 8 10 10 -20 11 -20 0 -45 3 -55 7 -17 6 -17
6 0 -14z"/>
<path d="M6506 4549 c11 -12 14 -48 14 -157 0 -123 -2 -142 -17 -152 -14 -8
10 -10 92 -8 94 3 115 7 147 26 48 30 73 91 66 163 -10 102 -62 136 -215 141
-92 3 -100 2 -87 -13z m174 -13 c39 -14 76 -62 86 -111 8 -43 -10 -106 -40
-138 -28 -30 -94 -52 -130 -43 l-26 6 0 150 0 150 38 -1 c20 0 53 -6 72 -13z"/>
<path d="M7045 4554 c12 -9 15 -38 15 -158 0 -143 -1 -147 -22 -156 -16 -6 16
-9 100 -9 91 -1 122 2 122 12 0 6 3 23 6 37 5 24 5 24 -11 -3 -15 -27 -19 -28
-83 -25 l-67 3 -3 68 -3 67 55 0 c42 0 57 -4 65 -17 8 -14 10 -9 11 26 0 39
-2 43 -13 27 -10 -13 -24 -17 -62 -14 l-50 3 0 65 0 65 44 3 c60 4 86 -3 99
-30 10 -22 11 -21 11 9 l1 32 -115 3 c-87 2 -112 0 -100 -8z"/>
<path d="M8238 4443 c-30 -70 -61 -142 -67 -159 -7 -17 -22 -36 -34 -42 -19
-9 -14 -11 28 -11 28 1 44 3 38 6 -16 6 -16 25 -1 75 l11 39 66 -3 66 -3 19
-40 c14 -30 16 -43 7 -57 -10 -16 -6 -18 44 -18 l56 0 -24 23 c-15 13 -49 81
-82 162 -32 77 -61 144 -65 148 -4 4 -32 -50 -62 -120z m67 10 c34 -81 33 -83
-25 -83 -28 0 -50 4 -48 8 2 4 12 31 22 60 11 29 24 52 28 52 4 0 15 -17 23
-37z"/>
<path d="M8720 4560 c-36 -4 -57 -7 -47 -8 15 -2 17 -16 17 -152 0 -131 -2
-150 -17 -159 -14 -8 -4 -10 42 -10 46 0 56 2 43 10 -14 8 -18 24 -18 74 0 62
1 65 24 65 18 0 33 -15 66 -65 48 -73 64 -85 112 -84 27 0 29 2 13 9 -25 10
-55 43 -89 98 l-27 43 31 29 c23 21 30 37 30 64 0 42 -36 86 -69 86 -11 0 -25
1 -33 3 -7 2 -42 0 -78 -3z m115 -35 c30 -30 32 -64 4 -99 -16 -20 -29 -26
-60 -26 l-39 0 0 75 0 75 35 0 c25 0 44 -8 60 -25z"/>
<path d="M9160 4559 c0 -4 7 -9 15 -13 12 -4 15 -31 15 -151 0 -142 -1 -146
-22 -155 -17 -6 -7 -9 42 -9 36 1 58 3 50 6 -25 10 -30 25 -30 91 l0 62 49 0
c32 0 55 -6 65 -16 15 -14 16 -11 16 28 -1 34 -3 39 -11 26 -8 -14 -23 -18
-65 -18 l-55 0 3 68 3 67 44 3 c61 4 90 -5 101 -31 8 -20 9 -19 9 10 l1 32
-115 3 c-63 2 -115 0 -115 -3z"/>
<path d="M9869 4550 c22 -22 23 -28 19 -129 -4 -123 -16 -152 -73 -171 -30
-10 -41 -9 -72 7 -21 10 -43 29 -50 43 -17 33 -17 232 -1 248 9 9 3 12 -30 12
-40 0 -41 -1 -32 -26 6 -14 10 -71 10 -127 0 -83 4 -108 20 -134 23 -38 80
-57 138 -47 87 16 101 42 105 199 2 89 6 118 17 125 12 7 9 10 -12 10 -14 0
-35 3 -45 6 -14 6 -13 2 6 -16z"/>
<path d="M10197 4562 c-25 -3 -26 -5 -11 -20 14 -13 16 -30 10 -97 -3 -44 -6
-101 -6 -127 0 -35 -6 -54 -20 -68 l-20 -20 48 1 c26 0 40 3 32 6 -8 3 -18 11
-23 17 -7 10 1 226 9 235 2 2 32 -55 66 -127 35 -72 65 -131 68 -131 3 0 35
62 72 137 l67 137 0 -132 c1 -117 -1 -132 -16 -136 -10 -3 11 -5 47 -5 48 -1
59 2 43 8 -20 8 -23 17 -23 58 0 27 -3 89 -6 139 -6 85 -5 91 16 111 l23 21
-39 -6 c-21 -3 -40 -6 -41 -7 -1 -1 -28 -55 -60 -120 -32 -66 -62 -121 -68
-123 -5 -1 -37 54 -69 123 -33 68 -62 126 -65 127 -3 2 -18 1 -34 -1z"/>
<path d="M4813 4549 c15 -9 17 -27 17 -147 0 -139 -3 -154 -30 -165 -8 -3 40
-6 108 -6 110 -1 122 1 122 17 0 9 3 28 6 42 5 22 3 21 -15 -7 -20 -32 -23
-33 -86 -33 l-65 0 0 70 0 70 50 0 c36 0 52 -5 59 -17 8 -14 10 -8 10 27 0 35
-2 41 -10 28 -7 -13 -23 -18 -59 -18 l-50 0 0 70 0 71 62 -3 c55 -3 64 -6 75
-28 l13 -25 0 33 0 32 -112 0 c-82 -1 -108 -3 -95 -11z"/>
<path d="M7748 4548 c8 -8 12 -57 12 -155 0 -140 -1 -144 -22 -153 -17 -6 -7
-9 42 -9 36 1 58 3 50 6 -24 9 -30 25 -30 81 l0 52 50 0 c67 0 105 21 120 64
14 45 -7 102 -45 116 -40 15 -192 13 -177 -2z m141 -13 c32 -16 41 -33 41 -76
0 -44 -39 -79 -90 -79 l-40 0 0 78 c0 43 3 82 7 85 11 12 53 8 82 -8z"/>
</g>
</svg>
